<svg width="14" height="16" viewBox="0 0 14 16" fill="none" xmlns="http://www.w3.org/2000/svg">
<path d="M13.9768 3.08948C13.949 2.55432 13.7127 2.17902 13.1844 2.01221C13.1496 2.00526 13.1218 1.99136 13.0871 1.97746C11.6968 1.46316 10.2718 1.12956 8.7912 1.01836C7.74157 0.941905 6.69193 0.934954 5.66315 1.17821C3.12595 1.77591 1.38814 3.27713 0.581797 5.7722C-0.0438142 7.71127 0.0256983 9.67119 0.672163 11.5894C1.1518 13.0211 2.04155 14.154 3.36229 14.9254C4.40497 15.537 5.54498 15.8289 6.73364 15.8984C8.10303 15.9819 9.45157 15.8776 10.7932 15.5718C11.6343 15.3772 12.4476 15.1131 13.24 14.7795C13.6849 14.5918 13.9282 14.2652 13.9699 13.7856C13.9768 13.6744 13.9768 13.5632 13.9768 13.452C13.9768 11.7701 13.9768 10.0812 13.9768 8.39933C13.9768 6.72436 13.9768 5.04939 13.9768 3.38138C13.9768 3.29103 13.9838 3.18678 13.9768 3.08948ZM9.70181 12.1524C8.64523 12.486 7.56083 12.625 6.46949 12.34C5.3851 12.0551 4.64827 11.3601 4.2868 10.3106C3.86278 9.09433 3.85583 7.85027 4.27985 6.63401C4.75254 5.2857 5.76047 4.58374 7.17157 4.45864C7.9223 4.39609 8.66608 4.46559 9.39596 4.66019C9.47937 4.68104 9.56974 4.70884 9.65315 4.73664C10.0841 4.89649 10.2301 5.09805 10.2371 5.5637C10.244 6.53671 10.2371 7.50277 10.2371 8.47578C10.2371 9.43489 10.2301 10.394 10.2371 11.3531C10.2371 11.7562 10.0702 12.0342 9.70181 12.1524Z" fill="#F4F2F7"/>
</svg>
